<svg width="35" height="34" viewBox="0 0 35 34" fill="none" xmlns="http://www.w3.org/2000/svg">
<path d="M32.0153 32.0956C32.5359 32.0956 32.9614 31.6757 32.9614 31.1495V11.835H2.74121V31.1383C2.74121 31.6589 3.16105 32.0844 3.68732 32.0844H32.0153V32.0956Z" fill="#F2F2F2"/>
<path d="M11.2399 5.5531V2.82111C11.2399 2.30047 10.82 1.875 10.2938 1.875C9.7675 1.875 9.34766 2.30047 9.34766 2.82111V5.55872C9.34766 6.07937 9.7675 6.50483 10.2938 6.50483C10.82 6.50483 11.2399 6.07937 11.2399 5.5531Z" fill="#12372A"/>
<path d="M26.3502 5.5531V2.82111C26.3502 2.30047 25.9304 1.875 25.4041 1.875C24.8778 1.875 24.458 2.29484 24.458 2.82111V5.55872C24.458 6.07937 24.8778 6.50483 25.4041 6.50483C25.9304 6.50483 26.3502 6.07937 26.3502 5.5531Z" fill="#12372A"/>
<path d="M9.96365 15.8989H7.13086V18.7317H9.96365V15.8989Z" fill="#12372A"/>
<path d="M19.2674 15.8992H16.4346V18.732H19.2674V15.8992Z" fill="#12372A"/>
<path d="M28.572 15.8992H25.7393V18.732H28.572V15.8992Z" fill="#12372A"/>
<path d="M9.96267 25.0415H7.12988V27.8743H9.96267V25.0415Z" fill="#12372A"/>
<path d="M19.2674 25.0415H16.4346V27.8743H19.2674V25.0415Z" fill="#12372A"/>
<path d="M28.572 25.0415H25.7393V27.8743H28.572V25.0415Z" fill="#12372A"/>
<path d="M32.0152 3.24677H28.2419V2.82693C28.2419 1.265 26.971 -0.00585938 25.4091 -0.00585938C23.8472 -0.00585938 22.5763 1.265 22.5763 2.82693V3.24677H13.1262V2.82693C13.1262 1.265 11.8553 -0.00585938 10.2934 -0.00585938C8.7315 -0.00585938 7.46064 1.26492 7.46064 2.82684V3.24668H3.68728C2.12535 3.24677 0.854492 4.51763 0.854492 6.07956V31.1493C0.854492 32.7112 2.12535 33.9821 3.68728 33.9821H32.0152C33.5772 33.9821 34.848 32.7112 34.848 31.1493V6.07956C34.848 4.51763 33.5773 3.24677 32.0152 3.24677ZM24.463 2.8213C24.463 2.30066 24.8828 1.87519 25.4091 1.87519C25.9354 1.87519 26.3552 2.30066 26.3552 2.8213V5.55891C26.3552 6.07956 25.9354 6.50502 25.4091 6.50502C24.8828 6.50502 24.463 6.08518 24.463 5.55891V2.8213ZM9.35286 2.8213C9.35286 2.30066 9.77269 1.87519 10.299 1.87519C10.8252 1.87519 11.2451 2.29503 11.2451 2.8213V5.55891C11.2451 6.07956 10.8252 6.50502 10.299 6.50502C9.77269 6.50502 9.35286 6.08518 9.35286 5.55891V2.8213ZM32.9614 31.1493C32.9614 31.6699 32.5415 32.0954 32.0152 32.0954H3.68728C3.16664 32.0954 2.74117 31.6755 2.74117 31.1493V11.8348H32.9614L32.9614 31.1493ZM32.9614 9.95363H2.74117V6.07956C2.74117 5.55891 3.16101 5.13345 3.68728 5.13345H7.46064V5.55328C7.46064 7.11521 8.7315 8.38607 10.2934 8.38607C11.8553 8.38607 13.1262 7.11521 13.1262 5.55328V5.13345H22.5708V5.55328C22.5708 7.11521 23.8416 8.38607 25.4036 8.38607C26.9655 8.38607 28.2363 7.11521 28.2363 5.55328V5.13345H32.0097C32.5303 5.13345 32.9558 5.55328 32.9558 6.07956V9.95363H32.9614Z" fill="#0D9276"/>
<path d="M2.74121 6.07966V9.95373H32.9615V6.07966C32.9615 5.55901 32.5416 5.13354 32.0154 5.13354H28.2419V5.55338C28.2419 7.11531 26.9711 8.38617 25.4091 8.38617C23.8472 8.38617 22.5764 7.11531 22.5764 5.55338V5.13354H13.1263V5.55338C13.1263 7.11531 11.8554 8.38617 10.2935 8.38617C8.73154 8.38617 7.46068 7.1154 7.46068 5.55338V5.13354H3.68732C3.16668 5.13354 2.74121 5.55338 2.74121 6.07966Z" fill="#12372A"/>
<path d="M6.18927 20.6188H10.9087C11.4294 20.6188 11.8549 20.1989 11.8549 19.6727V14.9476C11.8549 14.4269 11.435 14.0015 10.9087 14.0015H6.18927C5.66863 14.0015 5.24316 14.4213 5.24316 14.9476V19.6727C5.24316 20.1989 5.663 20.6188 6.18927 20.6188ZM7.12984 15.8993H9.96263V18.7321H7.12984V15.8993Z" fill="#0D9276"/>
<path d="M15.4881 20.6188H20.2132C20.7338 20.6188 21.1593 20.1989 21.1593 19.6727V14.9476C21.1593 14.4269 20.7395 14.0015 20.2132 14.0015H15.4881C14.9675 14.0015 14.542 14.4213 14.542 14.9476V19.6727C14.5475 20.1989 14.9675 20.6188 15.4881 20.6188ZM16.4342 15.8993H19.267V18.7321H16.4342V15.8993Z" fill="#0D9276"/>
<path d="M24.7987 20.6188H29.5237C30.0444 20.6188 30.4699 20.1989 30.4699 19.6727V14.9476C30.4699 14.4269 30.05 14.0015 29.5237 14.0015H24.7987C24.278 14.0015 23.8525 14.4213 23.8525 14.9476V19.6727C23.8525 20.1989 24.278 20.6188 24.7987 20.6188ZM25.7392 15.8993H28.572V18.7321H25.7392V15.8993Z" fill="#0D9276"/>
<path d="M6.18927 29.7665H10.9087C11.4294 29.7665 11.8549 29.3466 11.8549 28.8204V24.0953C11.8549 23.5746 11.435 23.1492 10.9087 23.1492H6.18927C5.66863 23.1492 5.24316 23.5691 5.24316 24.0953V28.8204C5.24316 29.341 5.663 29.7665 6.18927 29.7665ZM7.12984 25.0415H9.96263V27.8743H7.12984V25.0415Z" fill="#0D9276"/>
<path d="M15.4881 29.7665H20.2132C20.7338 29.7665 21.1593 29.3466 21.1593 28.8204V24.0953C21.1593 23.5746 20.7395 23.1492 20.2132 23.1492H15.4881C14.9675 23.1492 14.542 23.5691 14.542 24.0953V28.8204C14.5475 29.341 14.9675 29.7665 15.4881 29.7665ZM16.4342 25.0415H19.267V27.8743H16.4342V25.0415Z" fill="#0D9276"/>
<path d="M24.7987 29.7665H29.5237C30.0444 29.7665 30.4699 29.3466 30.4699 28.8204V24.0953C30.4699 23.5746 30.05 23.1492 29.5237 23.1492H24.7987C24.278 23.1492 23.8525 23.5691 23.8525 24.0953V28.8204C23.8525 29.341 24.278 29.7665 24.7987 29.7665ZM25.7392 25.0415H28.572V27.8743H25.7392V25.0415Z" fill="#0D9276"/>
</svg>
