<svg width="33" height="34" viewBox="0 0 33 34" fill="none" xmlns="http://www.w3.org/2000/svg">
<path d="M32.6648 24.7866C32.3514 24.4733 31.8477 24.4172 31.4727 24.6635C28.8591 26.4041 25.7977 27.3219 22.6357 27.3219C18.6846 27.3219 14.9516 25.8948 12.0191 23.2868L14.073 21.2329C14.711 20.5221 14.2017 19.6602 13.4014 19.6211H3.09814C2.57767 19.6211 2.15234 20.0408 2.15234 20.5669V30.8646C2.1971 31.7544 3.19328 32.0958 3.76413 31.5362L5.90765 29.3927C9.19278 32.3589 13.407 33.9818 17.8619 33.9818C22.6357 33.9818 28.708 31.9895 32.7655 25.9788C33.0285 25.6037 32.9781 25.1057 32.6648 24.7866ZM17.8787 32.0901C13.6085 32.0901 9.59023 30.4223 6.57364 27.4058C6.22104 27.0532 5.58863 27.0532 5.23602 27.4058L4.04956 28.5922V21.5071H11.1292L9.99867 22.6376C9.6349 23.035 9.61248 23.589 9.99867 23.9752C13.3789 27.3556 17.8674 29.2136 22.6412 29.2136C24.5328 29.2136 26.3965 28.917 28.165 28.3461C25.2829 30.7637 21.6843 32.0901 17.8787 32.0901Z" fill="#0D9276"/>
<path d="M21.0743 10.6833L19.0204 12.7372C18.3824 13.448 18.8917 14.3099 19.692 14.349H29.9953C30.5157 14.349 30.9411 13.9293 30.9411 13.4032V3.10554C30.8963 2.21567 29.9001 1.87432 29.3293 2.43392L27.1858 4.57743C23.8894 1.61131 19.6808 -0.00610352 15.2203 -0.00610352C10.4464 -0.00610352 4.3854 1.98625 0.316705 7.99692C0.0648687 8.37186 0.115253 8.86437 0.43981 9.18901C0.753199 9.5024 1.25687 9.55841 1.6319 9.31211C4.2455 7.57159 7.30684 6.65376 10.4689 6.65376C14.4088 6.64822 18.1473 8.07527 21.0743 10.6833ZM15.2147 1.87994C19.4849 1.87994 23.5032 3.54775 26.5198 6.56425C26.8724 6.91685 27.5048 6.91685 27.8574 6.56425L29.0438 5.37778V12.4574H21.9642L23.0947 11.3269C23.4585 10.9295 23.4809 10.3755 23.0947 9.98928C19.7145 6.609 15.226 4.75092 10.4522 4.75092C8.56048 4.75092 6.69686 5.04751 4.92837 5.61837C7.81051 3.20631 11.409 1.87994 15.2147 1.87994Z" fill="#0D9276"/>
<path d="M29.0433 5.38358L27.8568 6.57004C27.5042 6.92265 26.8718 6.92265 26.5192 6.57004C23.5027 3.55354 19.4843 1.88574 15.2142 1.88574C11.4085 1.88574 7.80433 3.20094 4.92773 5.62979C6.69622 5.05331 8.5543 4.76234 10.4515 4.76234C15.2253 4.76234 19.7194 6.62043 23.0941 10.0007C23.4803 10.3813 23.4579 10.9353 23.0941 11.3383L21.9635 12.4632H29.0432L29.0433 5.38358Z" fill="#12372A"/>
<path d="M6.56728 27.4057C9.58378 30.4222 13.6022 32.09 17.8723 32.09C21.678 32.09 25.2822 30.7748 28.1588 28.3459C26.3903 28.9224 24.5322 29.2134 22.635 29.2134C17.8611 29.2134 13.367 27.3553 9.9924 23.975C9.6062 23.5944 9.62863 23.0404 9.9924 22.6374L11.1229 21.5068H4.04883V28.5865L5.23529 27.4C5.5879 27.0532 6.21468 27.0532 6.56728 27.4057Z" fill="#12372A"/>
</svg>
