<svg viewBox="0 0 15 15" fill="none" xmlns="http://www.w3.org/2000/svg">
<path d="M14.2125 1.5975C13.995 1.2825 13.7175 1.005 13.4025 0.7875C12.69 0.27 11.76 0 10.6425 0H4.3575C4.2075 0 4.0575 0.00749998 3.915 0.0225C1.455 0.18 0 1.7775 0 4.3575V10.6425C0 11.76 0.27 12.69 0.7875 13.4025C1.005 13.7175 1.2825 13.995 1.5975 14.2125C2.2125 14.6625 2.9925 14.925 3.915 14.985C4.0575 14.9925 4.2075 15 4.3575 15H10.6425C13.3725 15 15 13.3725 15 10.6425V4.3575C15 3.24 14.73 2.31 14.2125 1.5975ZM4.845 6.51L4.4775 6.1275C4.2825 5.9325 4.125 5.58 4.125 5.34V4.44C4.125 3.9675 4.4775 3.615 4.9125 3.615H6.5175C6.825 3.615 7.0125 3.9525 6.8475 4.215L5.46 6.45C5.325 6.6675 5.0175 6.6975 4.845 6.51ZM10.875 5.265C10.875 5.58 10.68 5.97 10.485 6.165L8.7975 7.6575C8.565 7.8525 8.4075 8.2425 8.4075 8.5575V10.245C8.4075 10.4775 8.25 10.7925 8.055 10.9125L7.5 11.265C6.99 11.58 6.285 11.2275 6.285 10.5975V8.52C6.285 8.2425 6.1275 7.89 5.97 7.695L5.79 7.5C5.67 7.3725 5.6475 7.1775 5.7375 7.02L7.7475 3.795C7.8225 3.6825 7.9425 3.6075 8.0775 3.6075H10.0875C10.5225 3.6075 10.875 3.96 10.875 4.395V5.265Z" fill="#111205"/>
</svg>
