<svg width="35" height="34" viewBox="0 0 35 34" fill="none" xmlns="http://www.w3.org/2000/svg">
<path d="M28.5527 9.82171L26.5939 11.7805V3.81655C26.5939 3.29608 26.1742 2.87076 25.6481 2.87076H22.0159V0.93994C22.0159 0.419469 21.5962 -0.00585938 21.0701 -0.00585938C20.544 -0.00585938 20.1243 0.413842 20.1243 0.93994V2.87076H16.9006V0.93994C16.9006 0.419469 16.4809 -0.00585938 15.9548 -0.00585938C15.4343 -0.00585938 15.009 0.413842 15.009 0.93994V2.87076H11.7854V0.93994C11.7798 0.419469 11.3601 -0.00585938 10.834 -0.00585938C10.3079 -0.00585938 9.88818 0.413842 9.88818 0.93994V2.87076H6.6813V0.93994C6.6813 0.419469 6.25597 -0.00585938 5.72987 -0.00585938C5.20377 -0.00585938 4.78407 0.413842 4.78407 0.93994V2.87076H1.15185C0.631383 2.87076 0.206055 3.29046 0.206055 3.81655V33.0363C0.206055 33.5567 0.625756 33.9821 1.15185 33.9821H25.6536C26.1741 33.9821 26.5994 33.5624 26.5994 33.0363V21.1267L33.2314 14.4948C34.4906 13.1964 34.5577 11.1704 33.2314 9.82725C31.9722 8.56243 29.8287 8.5401 28.5527 9.82171ZM2.09774 4.76235H4.7897V6.69317C4.7897 7.21364 5.2094 7.63897 5.7355 7.63897C6.26159 7.63897 6.6813 7.21927 6.6813 6.69317V4.76235H9.90489V6.69317C9.90489 7.21364 10.3246 7.63897 10.8507 7.63897C11.3768 7.63897 11.7965 7.21927 11.7965 6.69317V4.76235H15.0201V6.69317C15.0201 7.21364 15.4398 7.63897 15.9659 7.63897C16.4864 7.63897 16.9117 7.21927 16.9117 6.69317V4.76235H20.1353V6.69317C20.1353 7.21364 20.555 7.63897 21.0811 7.63897C21.6072 7.63897 22.0269 7.21927 22.0269 6.69317V4.76235H24.7188V9.59221H2.10891V4.76235H2.09774ZM24.7078 32.096H2.09774V11.4783H24.7079V13.6665L22.4022 15.9723C22.2623 15.6309 21.9208 15.3958 21.5347 15.3958H5.28212C4.76165 15.3958 4.33632 15.8155 4.33632 16.3416C4.33632 16.8621 4.75602 17.2874 5.28212 17.2874H21.0813L17.3372 21.0427H5.28212C4.76165 21.0427 4.33632 21.4624 4.33632 21.9885C4.33632 22.5146 4.76165 22.9232 5.28212 22.9232H15.4511L14.4438 23.9305C14.3318 24.0425 14.2479 24.1824 14.2031 24.3391L13.5371 26.6729H5.28212C4.76165 26.6729 4.33632 27.0926 4.33632 27.6187C4.33632 28.1391 4.75602 28.5701 5.28212 28.5701H13.011L12.8823 29.0122C12.7871 29.3424 12.8823 29.695 13.1229 29.9357C13.358 30.1707 13.6602 30.2547 14.0464 30.1763L18.7028 28.8611C18.8538 28.8164 18.9994 28.7324 19.1113 28.6205L24.7078 23.0239V32.096ZM17.9472 27.1039L15.1601 27.893L15.9492 25.0947L26.661 14.3829L28.659 16.3809L17.9472 27.1039ZM31.8938 13.1572L30.0022 15.0488L28.0042 13.0508L29.8958 11.1592C30.4331 10.622 31.3621 10.622 31.8938 11.1592C32.364 11.6574 32.5262 12.5137 31.8938 13.1572Z" fill="#0D9276"/>
</svg>
