<svg width="29" height="30" viewBox="0 0 29 30" fill="none" xmlns="http://www.w3.org/2000/svg">
<path d="M1.04688 15.2689L10.6807 22.5955L9.92544 17.4593H21.2508V12.9276H9.92544L10.6807 7.94238L1.04688 15.2689Z" fill="#F2F2F2"/>
<path d="M6.82422 26.2206H25.1021V4.3173H6.82422V1.29614H26.6167C27.4509 1.29614 28.1233 1.97243 28.1233 2.80669V27.7312C28.1233 28.5654 27.4509 29.2417 26.6167 29.2417H6.82422V26.2206Z" fill="#12372A"/>
<path d="M10.6792 23.3508C10.8115 23.3508 10.9443 23.3161 11.0631 23.2458C11.3275 23.0898 11.4711 22.7893 11.4264 22.4856L10.7983 18.2146H21.2869C21.704 18.2146 22.0045 17.8764 22.0045 17.4593V12.9276C22.0045 12.5106 21.7041 12.1723 21.2869 12.1723H10.8022L11.4259 8.05566C11.4719 7.7516 11.329 7.44985 11.0645 7.2929C10.8 7.13613 10.4667 7.15511 10.2219 7.34134L0.588053 14.6678C0.40027 14.8107 0.290039 15.033 0.290039 15.269C0.290039 15.5049 0.400327 15.7273 0.588053 15.8702L10.2219 23.1967C10.3563 23.2989 10.5174 23.3508 10.6792 23.3508ZM9.1766 17.5692L9.66257 20.8734L2.29306 15.269L9.65325 9.67155L9.17712 12.8144C9.1441 13.032 9.20761 13.2532 9.35121 13.42C9.49464 13.5869 9.70376 13.6829 9.92388 13.6829H20.494V16.704H9.92388C9.7044 16.704 9.49579 16.7996 9.3523 16.9657C9.20876 17.1317 9.14461 17.3521 9.1766 17.5692Z" fill="#0D9276"/>
<path d="M26.6151 0.540771H6.86046C6.44341 0.540771 6.06738 0.879 6.06738 1.29605V4.31721C6.06738 4.73425 6.44335 5.07248 6.86046 5.07248H24.3453V25.4653H6.86046C6.44341 25.4653 6.06738 25.8035 6.06738 26.2205V29.2417C6.06738 29.6587 6.44335 29.997 6.86046 29.997H26.6151C27.8832 29.997 28.8771 28.9805 28.8771 27.7311V2.80665C28.8771 1.55724 27.8832 0.540771 26.6151 0.540771ZM27.3665 27.7311C27.3665 28.1405 27.0429 28.4864 26.6151 28.4864H7.57799V26.9758H25.1384C25.5555 26.9758 25.856 26.6376 25.856 26.2205V4.31721C25.856 3.90016 25.5555 3.56193 25.1384 3.56193H7.57799V2.05132H26.6151C27.0429 2.05132 27.3665 2.39714 27.3665 2.8066V27.7311Z" fill="#0D9276"/>
</svg>
