<svg width="24" height="24" viewBox="0 0 24 24" fill="none" xmlns="http://www.w3.org/2000/svg">
<path d="M11.9996 22.8533C12.4195 22.8436 12.8225 22.6857 13.1373 22.4075C13.4521 22.1294 13.6583 21.7488 13.7196 21.3333H10.2129C10.2759 21.7601 10.4918 22.1496 10.8204 22.4292C11.1491 22.7088 11.5681 22.8595 11.9996 22.8533Z" fill="#000"/>
<path d="M21.3999 20.1334V18.979L21.3424 18.9283L21.3406 18.9267C20.664 18.3238 20.0718 17.6325 19.5799 16.8714L19.5662 16.8502L19.5547 16.8277C19.0139 15.7701 18.6897 14.6151 18.6013 13.4306L18.5999 13.412V13.3934V10.1017C18.598 9.83832 18.5808 9.57533 18.5484 9.31409L21.3999 20.1334ZM21.3999 20.1334H2.5332V18.979L2.59068 18.9283L2.59071 18.9283L2.59587 18.9236C3.26233 18.3188 3.84497 17.6277 4.32831 16.8686L4.34097 16.8487L4.3517 16.8277C4.89254 15.7701 5.21669 14.6151 5.30515 13.4306L5.30654 13.412V13.3934L5.30654 10.1L5.30654 10.0988C5.30264 8.47962 5.88468 6.91369 6.94518 5.69012C8.00569 4.46654 9.47305 3.66795 11.0764 3.44178L11.5065 3.3811V2.94668V2.07335C11.5065 1.96992 11.5476 1.87072 11.6208 1.79758C11.6939 1.72444 11.7931 1.68335 11.8965 1.68335C12 1.68335 12.0992 1.72444 12.1723 1.79758C12.2454 1.87072 12.2865 1.96992 12.2865 2.07335V2.91335V3.35321L12.7228 3.40927C13.3358 3.48804 13.9341 3.65316 14.4999 3.89928L14.4999 3.99911C14.4999 3.99929 14.4999 3.99947 14.4999 3.99965M21.3999 20.1334L14.4999 3.99965M14.4999 3.99965V4.00002H14.7202L14.4999 3.99965Z" fill="#000" stroke="#000"/>
<path d="M20.0003 7.33342C21.8413 7.33342 23.3337 5.84103 23.3337 4.00008C23.3337 2.15913 21.8413 0.666748 20.0003 0.666748C18.1594 0.666748 16.667 2.15913 16.667 4.00008C16.667 5.84103 18.1594 7.33342 20.0003 7.33342Z" fill="#000"/>
</svg>
