<svg width="41" height="34" viewBox="0 0 41 34" fill="none" xmlns="http://www.w3.org/2000/svg">
<path d="M37.8286 30.9716L34.2633 24.407H6.40417L2.8323 30.9716C2.62408 31.4531 3.28127 31.8304 3.89276 31.8044H36.7812C37.3667 31.8369 38.0499 31.4206 37.8286 30.9716Z" fill="#12372A"/>
<path d="M33.7628 3.30117C33.7628 2.69611 33.2749 2.20166 32.6633 2.20166H7.95302C7.34797 2.20166 6.85352 2.68957 6.85352 3.30117V22.2209H33.7628V3.30117Z" fill="#F2F2F2"/>
<path d="M39.7617 29.9306L35.9556 22.9431V3.30111C35.9556 1.48595 34.4787 0.0090332 32.6635 0.0090332H7.95325C6.13808 0.0090332 4.66117 1.48595 4.66117 3.30111V23.0472L0.913686 29.9306C-0.0556923 31.5767 1.21299 33.9188 3.89348 33.9969H36.7819C39.2607 33.9579 40.8091 31.8304 39.7617 29.9306ZM6.85374 3.30111C6.85374 2.69606 7.34165 2.20161 7.95325 2.20161H32.67C33.275 2.20161 33.7695 2.68952 33.7695 3.30111V22.2209H6.85374V3.30111ZM36.7819 31.8044H3.89348C3.28842 31.8304 2.62479 31.453 2.83302 30.9716L6.40488 24.4069H34.264L37.8359 30.9716C38.0506 31.4205 37.3674 31.8304 36.7819 31.8044Z" fill="#0D9276"/>
<path d="M31.8945 4.17285H8.71973V20.2625H31.8945V4.17285Z" fill="#12372A"/>
<path d="M15.7147 10.4578C15.409 9.93726 14.7323 9.7551 14.2119 10.0609L13.802 10.3017V9.82021C13.802 9.21515 13.314 8.7207 12.7024 8.7207C12.0908 8.7207 11.6029 9.20861 11.6029 9.82021V10.3017L11.193 10.0609C10.6725 9.7552 9.9959 9.93082 9.69015 10.4578C9.3844 10.9783 9.56002 11.6549 10.087 11.9607L10.5294 12.2144L10.087 12.4681C9.56646 12.7738 9.3843 13.4505 9.69015 13.971C9.9959 14.4915 10.6726 14.6736 11.193 14.3678L11.6029 14.1271V14.6085C11.6029 15.2136 12.0908 15.708 12.7024 15.708C13.314 15.708 13.802 15.2201 13.802 14.6085V14.1271L14.2119 14.3678C14.7324 14.6735 15.409 14.4979 15.7147 13.971C16.0205 13.4504 15.8449 12.7738 15.3179 12.4681L14.8755 12.2144L15.3179 11.9607C15.8449 11.6419 16.027 10.9783 15.7147 10.4578Z" fill="#0D9276"/>
<path d="M23.327 10.4578C23.0213 9.93726 22.3446 9.7551 21.8242 10.0609L21.4143 10.3017V9.82021C21.4143 9.21515 20.9263 8.7207 20.3148 8.7207C19.7097 8.7207 19.2152 9.20861 19.2152 9.82021V10.3017L18.8053 10.0609C18.2848 9.7552 17.6082 9.93082 17.3025 10.4578C16.9967 10.9783 17.1723 11.6549 17.6993 11.9607L18.1417 12.2144L17.6993 12.4681C17.1788 12.7738 16.9966 13.4505 17.3025 13.971C17.6082 14.4915 18.2849 14.6736 18.8053 14.3678L19.2152 14.1271V14.6085C19.2152 15.2136 19.7032 15.708 20.3148 15.708C20.9263 15.708 21.4143 15.2201 21.4143 14.6085V14.1271L21.8242 14.3678C22.3447 14.6735 23.0213 14.4979 23.327 13.971C23.6328 13.4504 23.4572 12.7738 22.9302 12.4681L22.4878 12.2144L22.9302 11.9607C23.4506 11.6419 23.6328 10.9783 23.327 10.4578Z" fill="#0D9276"/>
<path d="M30.9325 10.4578C30.6268 9.93726 29.9501 9.7551 29.4296 10.0609L29.0197 10.3017V9.82021C29.0197 9.21515 28.5318 8.7207 27.9202 8.7207C27.3152 8.7207 26.8207 9.20861 26.8207 9.82021V10.3017L26.4108 10.0609C25.8903 9.7552 25.2137 9.93082 24.9079 10.4578C24.6022 10.9783 24.7778 11.6549 25.3048 11.9607L25.7472 12.2144L25.3048 12.4681C24.7842 12.7738 24.6021 13.4505 24.9079 13.971C25.2137 14.4915 25.8904 14.6736 26.4108 14.3678L26.8207 14.1271V14.6085C26.8207 15.2136 27.3086 15.708 27.9202 15.708C28.5253 15.708 29.0197 15.2201 29.0197 14.6085V14.1271L29.4296 14.3678C29.9502 14.6735 30.6268 14.4979 30.9325 13.971C31.2383 13.4504 31.0626 12.7738 30.5357 12.4681L30.0933 12.2144L30.5357 11.9607C31.0626 11.6419 31.2383 10.9783 30.9325 10.4578Z" fill="#0D9276"/>
<path d="M24.0299 27.9268H16.6454C16.0404 27.9268 15.5459 28.4147 15.5459 29.0263C15.5459 29.6313 16.0338 30.1258 16.6454 30.1258H24.0233C24.6284 30.1258 25.1228 29.6379 25.1228 29.0263C25.1228 28.4212 24.6349 27.9268 24.0299 27.9268Z" fill="#0D9276"/>
</svg>
