<svg width="31" height="34" viewBox="0 0 31 34" fill="none" xmlns="http://www.w3.org/2000/svg">
<path d="M7.01709 9.87573H6.06567C2.83645 9.87573 0.206055 12.5061 0.206055 15.7353V22.0482C0.206055 22.5687 0.625755 22.994 1.15185 22.994H2.00813V33.0511C2.00813 33.5716 2.42783 33.9969 2.95393 33.9969H10.1287C10.6492 33.9969 11.0745 33.5772 11.0745 33.0511V22.994H11.9308C12.4513 22.994 12.8766 22.5743 12.8766 22.0482V15.7353C12.8767 12.5061 10.2519 9.87573 7.01709 9.87573ZM10.985 21.108H2.09774V15.7353C2.09774 13.547 3.87748 11.7673 6.06567 11.7673H7.01709C9.20537 11.7673 10.985 13.5471 10.985 15.7353V21.108ZM9.18857 32.1052H7.48718V28.3947C7.48718 27.8742 7.06748 27.4489 6.54138 27.4489C6.02091 27.4489 5.59558 27.8686 5.59558 28.3947V32.1052H3.89981V22.994H9.18295L9.18857 32.1052Z" fill="#0D9276"/>
<path d="M6.54086 0.0090332C4.17909 0.0090332 2.25391 1.92868 2.25391 4.29044C2.25391 6.65221 4.17355 8.57185 6.53532 8.57185C8.89708 8.57185 10.8167 6.65221 10.8167 4.29044C10.8167 1.92868 8.90262 0.0090332 6.54086 0.0090332ZM6.54086 6.68571C5.22566 6.68571 4.1455 5.61118 4.1455 4.29036C4.1455 2.96953 5.22003 1.89509 6.54086 1.89509C7.86168 1.89509 8.93621 2.96962 8.93621 4.29044C8.93621 5.61127 7.86168 6.68571 6.54086 6.68571Z" fill="#0D9276"/>
<path d="M24.9312 9.87573H23.9797C20.7505 9.87573 18.1201 12.5061 18.1201 15.7353V22.0482C18.1201 22.5687 18.5398 22.994 19.0659 22.994H19.9222V33.0511C19.9222 33.5716 20.3419 33.9969 20.868 33.9969H28.0483C28.5688 33.9969 28.9941 33.5772 28.9941 33.0511V22.994H29.8504C30.3709 22.994 30.7962 22.5743 30.7962 22.0482V15.7353C30.7908 12.5061 28.166 9.87573 24.9312 9.87573ZM28.9047 21.108H20.0174V15.7353C20.0174 13.547 21.7972 11.7673 23.9854 11.7673H24.9368C27.1251 11.7673 28.9047 13.5471 28.9047 15.7353V21.108ZM27.1026 32.1052H25.4012V28.3947C25.4012 27.8742 24.9815 27.4489 24.4554 27.4489C23.9293 27.4489 23.5096 27.8686 23.5096 28.3947V32.1052H21.8082V22.994H27.0914V32.1052H27.1026Z" fill="#0D9276"/>
<path d="M24.4621 0.0090332C22.1003 0.0090332 20.1807 1.92868 20.1807 4.29044C20.1807 6.65221 22.1003 8.57185 24.4621 8.57185C26.8238 8.57185 28.7435 6.65221 28.7435 4.29044C28.7435 1.92868 26.8182 0.0090332 24.4621 0.0090332ZM24.4621 6.68571C23.1469 6.68571 22.0667 5.61118 22.0667 4.29036C22.0667 2.96953 23.1412 1.895 24.4621 1.895C25.7829 1.895 26.8574 2.96953 26.8574 4.29036C26.8574 5.61118 25.7829 6.68571 24.4621 6.68571Z" fill="#0D9276"/>
</svg>
