<svg width="12" height="12" viewBox="0 0 12 12" fill="none" xmlns="http://www.w3.org/2000/svg">
<path fill-rule="evenodd" clip-rule="evenodd" d="M11.2641 3.65996C12.2299 2.69029 12.1889 1.41691 11.4677 0.637096C11.116 0.256858 10.6155 0.0139782 10.0485 0.000586176C9.47949 -0.0128538 8.88994 0.20476 8.34592 0.659908C8.332 0.671548 8.31862 0.683812 8.30584 0.696664L0.524671 8.50896C0.188656 8.84628 0 9.30306 0 9.77922V10.7953C0 11.4562 0.535177 12 1.20229 12H2.20957C2.6882 12 3.14712 11.8094 3.48488 11.4703L11.2641 3.65996ZM9.12418 2.27577C8.88988 2.04146 8.50996 2.04146 8.27566 2.27577C8.04137 2.51009 8.04137 2.88998 8.27566 3.1243L8.87566 3.7243C9.10996 3.95861 9.48987 3.95861 9.72417 3.7243C9.95847 3.48998 9.95847 3.11009 9.72417 2.87577L9.12418 2.27577Z" fill="#000"/>
</svg>
