<svg width="34" height="35" viewBox="0 0 34 35" fill="none" xmlns="http://www.w3.org/2000/svg">
<path d="M33.4757 25.5313C33.1529 25.2086 32.6343 25.1509 32.2481 25.4045C29.5566 27.1969 26.4041 28.142 23.148 28.142C19.0792 28.142 15.2351 26.6724 12.2152 23.9868L14.3303 21.8717C14.9873 21.1398 14.4629 20.2522 13.6387 20.2119H3.02864C2.49268 20.2119 2.05469 20.6441 2.05469 21.1859V31.7902C2.10078 32.7066 3.12662 33.0581 3.71447 32.4818L5.92181 30.2745C9.30476 33.329 13.6445 35.0003 18.232 35.0003C23.148 35.0003 29.4011 32.9486 33.5794 26.759C33.8503 26.3727 33.7984 25.8598 33.4757 25.5313ZM18.2493 33.0522C13.852 33.0522 9.71405 31.3347 6.60764 28.2284C6.24453 27.8653 5.59329 27.8653 5.23019 28.2284L4.0084 29.4502V22.154H11.2989L10.1347 23.3182C9.76005 23.7274 9.73696 24.298 10.1347 24.6957C13.6156 28.1767 18.2377 30.09 23.1537 30.09C25.1016 30.09 27.0208 29.7846 28.8419 29.1967C25.874 31.6863 22.1682 33.0522 18.2493 33.0522Z" fill="#458DE2"/>
<path d="M21.5399 11.0077L19.4249 13.1228C18.7678 13.8547 19.2923 14.7423 20.1165 14.7826H30.7265C31.2625 14.7826 31.7005 14.3504 31.7005 13.8086V3.2043C31.6544 2.28793 30.6285 1.93641 30.0407 2.51268L27.8333 4.72001C24.4388 1.66558 20.1049 0 15.5116 0C10.5956 0 4.35407 2.05168 0.164228 8.24133C-0.095108 8.62743 -0.0432231 9.1346 0.290998 9.46891C0.613719 9.79163 1.13239 9.84931 1.51858 9.59568C4.21 7.80333 7.3625 6.85817 10.6187 6.85817C14.676 6.85247 18.5258 8.32201 21.5399 11.0077ZM15.5059 1.94221C19.9031 1.94221 24.0411 3.65967 27.1475 6.76599C27.5106 7.1291 28.1619 7.1291 28.525 6.76599L29.7468 5.5442V12.8347H22.4563L23.6205 11.6705C23.9951 11.2613 24.0182 10.6907 23.6205 10.293C20.1396 6.81208 15.5174 4.89867 10.6015 4.89867C8.65348 4.89867 6.73436 5.2041 4.91321 5.79195C7.88118 3.30807 11.5868 1.94221 15.5059 1.94221Z" fill="#458DE2"/>
<path d="M29.7457 5.55023L28.5239 6.77203C28.1608 7.13513 27.5096 7.13513 27.1465 6.77203C24.0402 3.6657 19.9021 1.94824 15.5048 1.94824C11.5858 1.94824 7.87436 3.3026 4.91211 5.80377C6.73325 5.21013 8.64667 4.9105 10.6004 4.9105C15.5163 4.9105 20.1443 6.82391 23.6194 10.3048C24.0171 10.6967 23.994 11.2673 23.6194 11.6823L22.4552 12.8407H29.7456L29.7457 5.55023Z" fill="#458DE2"/>
<path d="M6.60126 28.2279C9.70758 31.3342 13.8456 33.0517 18.2429 33.0517C22.1619 33.0517 25.8734 31.6973 28.8356 29.196C27.0145 29.7897 25.1011 30.0893 23.1474 30.0893C18.2314 30.0893 13.6035 28.1759 10.1284 24.695C9.73067 24.3031 9.75376 23.7325 10.1284 23.3175L11.2926 22.1533H4.00781V29.4438L5.2296 28.222C5.59271 27.8649 6.23815 27.8649 6.60126 28.2279Z" fill="#458DE2"/>
</svg>
