<svg width="34" height="35" viewBox="0 0 34 35" fill="none" xmlns="http://www.w3.org/2000/svg">
<path d="M12.3445 27.1031C12.5016 27.1031 12.6594 27.0618 12.8006 26.9784C13.1147 26.793 13.2854 26.4359 13.2323 26.075L12.486 21.0002H24.9486C25.4442 21.0002 25.8012 20.5983 25.8012 20.1028V14.7182C25.8012 14.2226 25.4442 13.8208 24.9486 13.8208H12.4906L13.2316 8.9293C13.2864 8.56802 13.1166 8.20948 12.8023 8.02299C12.488 7.83671 12.092 7.85927 11.8011 8.08055L0.354101 16.7858C0.130977 16.9556 0 17.2199 0 17.5002C0 17.7805 0.131045 18.0448 0.354101 18.2146L11.8011 26.92C11.9608 27.0414 12.1522 27.1031 12.3445 27.1031ZM10.5591 20.2333L11.1365 24.1594L2.38 17.5002L11.1254 10.8493L10.5597 14.5837C10.5204 14.8422 10.5959 15.105 10.7665 15.3033C10.9369 15.5016 11.1854 15.6156 11.447 15.6156H24.0064V19.2054H11.447C11.1862 19.2054 10.9383 19.3189 10.7678 19.5163C10.5973 19.7135 10.5211 19.9754 10.5591 20.2333Z" fill="#458DE2"/>
<path d="M7.76367 30.5129H29.4816V4.48722H7.76367V0.897461H31.2811C32.2724 0.897461 33.0713 1.70103 33.0713 2.6923V32.3077C33.0713 33.299 32.2724 34.1025 31.2811 34.1025H7.76367V30.5129Z" fill="#458DE2"/>
<path d="M31.2792 0H7.80659C7.31105 0 6.86426 0.401885 6.86426 0.897422V4.48718C6.86426 4.98271 7.31099 5.3846 7.80659 5.3846H28.5822V29.6154H7.80659C7.31105 29.6154 6.86426 30.0173 6.86426 30.5128V34.1026C6.86426 34.5981 7.31099 35 7.80659 35H31.2792C32.7859 35 33.9668 33.7922 33.9668 32.3077V2.69233C33.9668 1.20777 32.7859 0 31.2792 0ZM32.172 32.3077C32.172 32.7942 31.7875 33.2051 31.2792 33.2051H8.65917V31.4102H29.5246C30.0201 31.4102 30.3771 31.0084 30.3771 30.5128V4.48718C30.3771 3.99164 30.0202 3.58976 29.5246 3.58976H8.65917V1.79484H31.2792C31.7875 1.79484 32.172 2.20575 32.172 2.69227V32.3077Z" fill="#458DE2"/>
</svg>
