<svg width="27" height="35" viewBox="0 0 27 35" fill="none" xmlns="http://www.w3.org/2000/svg">
<path d="M26.3014 21.8575L24.5514 18.9525C24.1839 18.305 23.8514 17.08 23.8514 16.3625V11.935C23.8514 7.82251 21.4364 4.27001 17.9539 2.6075C17.0439 0.997501 15.3639 0 13.4389 0C11.5314 0 9.81646 1.0325 8.90645 2.66C5.49395 4.35751 3.13145 7.87501 3.13145 11.935V16.3625C3.13145 17.08 2.79895 18.305 2.43145 18.935L0.663944 21.8575C-0.0360574 23.03 -0.193557 24.325 0.243943 25.515C0.663944 26.6875 1.66144 27.5975 2.95645 28.035C6.35145 29.19 9.92146 29.75 13.4914 29.75C17.0614 29.75 20.6314 29.19 24.0264 28.0525C25.2514 27.65 26.1964 26.7225 26.6514 25.515C27.1064 24.3075 26.9839 22.9775 26.3014 21.8575Z" fill="#458DE2"/>
<path d="M18.408 31.517C17.673 33.547 15.7305 34.9995 13.4555 34.9995C12.073 34.9995 10.708 34.4395 9.74551 33.442C9.18551 32.917 8.76551 32.217 8.52051 31.4995C8.74801 31.5345 8.97551 31.552 9.22051 31.587C9.62301 31.6395 10.043 31.692 10.463 31.727C11.4605 31.8145 12.4755 31.867 13.4905 31.867C14.488 31.867 15.4855 31.8145 16.4655 31.727C16.833 31.692 17.2005 31.6745 17.5505 31.622C17.8305 31.587 18.1105 31.552 18.408 31.517Z" fill="#458DE2"/>
</svg>
