<svg width="36" height="35" viewBox="0 0 36 35" fill="none" xmlns="http://www.w3.org/2000/svg">
<path d="M26.5391 14.7158V13.4314C27.8663 13.3633 28.8754 13.0061 29.6551 12.3596C30.4348 11.7131 30.8247 10.854 30.8247 9.8588C30.8247 8.78704 30.5093 7.99597 29.8128 7.49411C29.1076 6.9242 28.0985 6.49039 26.6136 6.20969H26.5391V2.91501C27.551 3.05961 28.411 3.34031 29.2652 3.91872L30.5151 2.3451C29.2652 1.55403 27.938 1.12873 26.5362 1.06068V0.19873H25.3666V1.05784C24.1971 1.12589 23.1794 1.48315 22.3997 2.12961C21.62 2.77607 21.2301 3.63519 21.2301 4.6304C21.2301 5.62561 21.5455 6.41668 22.242 6.91853C22.8641 7.42039 23.9563 7.8457 25.358 8.1349V11.4948C24.263 11.3502 23.1708 10.8483 22.0844 9.98923L20.6826 11.4948C22.0844 12.6431 23.6496 13.2811 25.3638 13.4257V14.7158H26.5391ZM26.6136 8.48932C27.3933 8.70198 27.8635 8.91463 28.1731 9.13579C28.4052 9.42499 28.5629 9.70569 28.5629 10.1395C28.5629 10.5733 28.4052 10.854 28.0154 11.1432C27.6255 11.4324 27.1525 11.5685 26.6136 11.6451V8.48932ZM23.8875 5.41579C23.6553 5.20314 23.4976 4.84589 23.4976 4.48863C23.4976 4.06333 23.6553 3.77412 23.962 3.48491C24.3519 3.19571 24.7417 3.05961 25.3638 2.98305V6.06226C24.5841 5.8411 24.1197 5.62845 23.8875 5.41579Z" fill="#458DE2"/>
<path fill-rule="evenodd" clip-rule="evenodd" d="M26.7378 14.9148H25.1648V13.6067C23.4803 13.4299 21.9386 12.781 20.5565 11.6488L20.3926 11.5145L22.0637 9.71959L22.2076 9.83338C23.197 10.6158 24.1814 11.0883 25.1591 11.2629V8.29621C23.8244 8.00634 22.7562 7.58711 22.1213 7.07684C21.361 6.52668 21.0312 5.66668 21.0312 4.63053C21.0312 3.57752 21.4463 2.66178 22.2727 1.97665C23.0486 1.33336 24.0419 0.968776 25.1677 0.872861V0H26.735V0.87352C28.1028 0.971089 29.3999 1.4041 30.6213 2.1772L30.8084 2.29558L29.3062 4.18685L29.1536 4.08352C28.3934 3.5688 27.6284 3.29722 26.7378 3.14727V6.03123C28.192 6.31548 29.2085 6.75185 29.9334 7.33615C30.6954 7.88763 31.0234 8.74942 31.0234 9.85894C31.0234 10.9119 30.6083 11.8277 29.7819 12.5128C28.9998 13.1612 28.006 13.5254 26.7378 13.6184V14.9148ZM26.7378 2.94567C26.6722 2.93487 26.6059 2.9247 26.539 2.91514V6.20983H26.6135C28.0984 6.49053 29.1075 6.92434 29.8126 7.49425C30.5092 7.99611 30.8246 8.78717 30.8246 9.85894C30.8246 10.8541 30.4347 11.7133 29.655 12.3597C28.8753 13.0062 27.8662 13.3634 26.539 13.4315V14.7159H25.3637V13.4258C23.7126 13.2865 22.1998 12.6896 20.838 11.6197C20.786 11.5788 20.7341 11.5372 20.6825 11.4949L22.0843 9.98936C23.1049 10.7965 24.1307 11.2883 25.1591 11.4647C25.2254 11.4761 25.2916 11.4862 25.3579 11.4949V8.13504C23.9562 7.84583 22.864 7.42053 22.2419 6.91867C21.5454 6.41681 21.23 5.62574 21.23 4.63053C21.23 3.63532 21.6199 2.77621 22.3996 2.12974C23.1793 1.48328 24.197 1.12603 25.3665 1.05798V0.198864H26.5361V1.06081C27.8744 1.12578 29.1447 1.51636 30.3446 2.23997C30.4016 2.2743 30.4583 2.30939 30.515 2.34523L29.2651 3.91886C28.4674 3.37871 27.6646 3.09818 26.7378 2.94567ZM26.8124 8.54564C26.7484 8.52691 26.6822 8.50818 26.6135 8.48946V11.6452C26.6808 11.6357 26.7471 11.6252 26.8124 11.6136C27.2693 11.5323 27.6741 11.3964 28.0153 11.1434C28.4051 10.8541 28.5628 10.5734 28.5628 10.1396C28.5628 9.70583 28.4051 9.42513 28.1729 9.13592C27.8906 8.93424 27.4748 8.73962 26.8124 8.54564ZM26.8124 8.75304V11.4114C27.2372 11.3326 27.5974 11.2058 27.8968 10.9836C28.078 10.8492 28.1912 10.727 28.2609 10.6C28.3295 10.4751 28.3639 10.331 28.3639 10.1396C28.3639 9.77762 28.241 9.5427 28.0351 9.2821C27.7852 9.10861 27.4121 8.93256 26.8124 8.75304ZM23.6964 4.48876C23.6964 4.79368 23.8331 5.09655 24.0217 5.26927C24.1939 5.42702 24.5455 5.60418 25.1648 5.7961V3.21245C24.701 3.2892 24.3947 3.41367 24.0898 3.63778C23.8198 3.89484 23.6964 4.13322 23.6964 4.48876ZM23.9619 3.48505C23.6552 3.77425 23.4975 4.06346 23.4975 4.48876C23.4975 4.84602 23.6552 5.20327 23.8874 5.41593C24.0991 5.60984 24.5039 5.80375 25.1648 6.00411C25.2287 6.02347 25.295 6.0429 25.3637 6.06239V2.98319C25.2946 2.99169 25.2284 3.00092 25.1648 3.01101C24.6551 3.09184 24.3085 3.22794 23.9619 3.48505Z" fill="#458DE2"/>
<path d="M35.1163 16.9339C34.8651 16.5576 34.4881 16.3066 33.9856 16.3066C31.2215 16.3066 28.5831 17.5612 26.9497 19.8195L25.819 21.3249C24.437 22.9559 22.3011 23.8341 20.1652 23.8341H16.396C15.6422 23.8341 15.1396 23.3323 15.1396 22.5795C15.1396 21.8268 15.6422 21.3249 16.396 21.3249H18.7832C20.7934 21.3249 22.678 19.694 22.678 17.6867V17.5612C22.678 16.9339 22.0498 16.3066 21.4216 16.3066H13.7576C9.23453 16.3066 5.59097 18.314 3.58074 21.5759L0.18846 26.8451C-0.0628199 27.2215 -0.0628199 27.7233 0.18846 28.0997L3.95766 34.3725C4.0833 34.6234 4.46021 34.8744 4.71149 34.9998C4.83713 34.9998 4.83713 34.9998 4.96277 34.9998C5.21405 34.9998 5.46533 34.8744 5.71661 34.7489C10.4909 31.6125 16.0191 29.9815 21.6729 29.9815C25.819 29.9815 29.5882 27.7233 31.5984 24.085L34.9907 18.063C35.242 17.8121 35.242 17.3103 35.1163 16.9339Z" fill="#458DE2"/>
</svg>
