<svg width="37" height="35" viewBox="0 0 37 35" fill="none" xmlns="http://www.w3.org/2000/svg">
<path fill-rule="evenodd" clip-rule="evenodd" d="M1.58802 0C2.46506 0 3.17604 0.712274 3.17604 1.59091V31.8182H35.2541C36.1311 31.8182 36.8421 32.5305 36.8421 33.4091C36.8421 34.2877 36.1311 35 35.2541 35H1.58802C0.710981 35 0 34.2877 0 33.4091V1.59091C0 0.712274 0.710981 0 1.58802 0ZM30.1724 3.18182C31.0495 3.18182 31.7604 3.89409 31.7604 4.77273V26.4091C31.7604 27.2877 31.0495 28 30.1724 28C29.2954 28 28.5844 27.2877 28.5844 26.4091V4.77273C28.5844 3.89409 29.2954 3.18182 30.1724 3.18182ZM16.1978 4.45455C17.0749 4.45455 17.7858 5.16682 17.7858 6.04545V26.4091C17.7858 27.2877 17.0749 28 16.1978 28C15.3208 28 14.6098 27.2877 14.6098 26.4091V6.04545C14.6098 5.16682 15.3208 4.45455 16.1978 4.45455ZM22.5499 10.1818C23.4269 10.1818 24.1379 10.8941 24.1379 11.7727V26.4091C24.1379 27.2877 23.4269 28 22.5499 28C21.6729 28 20.9619 27.2877 20.9619 26.4091V11.7727C20.9619 10.8941 21.6729 10.1818 22.5499 10.1818ZM9.21053 14.6364C10.0876 14.6364 10.7985 15.3486 10.7985 16.2273V26.4091C10.7985 27.2877 10.0876 28 9.21053 28C8.33349 28 7.6225 27.2877 7.6225 26.4091V16.2273C7.6225 15.3486 8.33349 14.6364 9.21053 14.6364Z" fill="#458DE2"/>
</svg>
