<svg width="35" height="35" viewBox="0 0 35 35" fill="none" xmlns="http://www.w3.org/2000/svg">
<path d="M1.94824 4.91602V9.8839H25.2316V4.91602" fill="#458DE2"/>
<path d="M16.2052 25.8593L15.3926 28.7409L18.2684 27.9168L29.3108 16.8802L27.2418 14.8228L16.2052 25.8593Z" fill="#458DE2"/>
<path d="M29.1907 10.1202L27.1736 12.1373V3.93624C27.1736 3.40027 26.7414 2.96227 26.1996 2.96227H22.4593V0.973963C22.4593 0.437994 22.0271 0 21.4853 0C20.9435 0 20.5113 0.432199 20.5113 0.973963V2.96227H17.1917V0.973963C17.1917 0.437994 16.7595 0 16.2177 0C15.6817 0 15.2437 0.432199 15.2437 0.973963V2.96227H11.9242V0.973963C11.9184 0.437994 11.4862 0 10.9444 0C10.4026 0 9.97044 0.432199 9.97044 0.973963V2.96227H6.66806V0.973963C6.66806 0.437994 6.23006 0 5.6883 0C5.14654 0 4.71434 0.432199 4.71434 0.973963V2.96227H0.973963C0.437994 2.96227 0 3.39447 0 3.93624V34.026C0 34.562 0.432199 35 0.973963 35H26.2054C26.7413 35 27.1793 34.5678 27.1793 34.026V21.7619L34.0087 14.9324C35.3054 13.5954 35.3746 11.5091 34.0087 10.1259C32.712 8.82344 30.5048 8.80044 29.1907 10.1202ZM1.94801 4.9102H4.72013V6.89851C4.72013 7.43448 5.15233 7.87247 5.69409 7.87247C6.23586 7.87247 6.66806 7.44027 6.66806 6.89851V4.9102H9.98764V6.89851C9.98764 7.43448 10.4198 7.87247 10.9616 7.87247C11.5034 7.87247 11.9356 7.44027 11.9356 6.89851V4.9102H15.2552V6.89851C15.2552 7.43448 15.6874 7.87247 16.2291 7.87247C16.7651 7.87247 17.2031 7.44027 17.2031 6.89851V4.9102H20.5227V6.89851C20.5227 7.43448 20.9549 7.87247 21.4966 7.87247C22.0384 7.87247 22.4706 7.44027 22.4706 6.89851V4.9102H25.2427V9.88388H1.95952V4.9102H1.94801ZM25.2314 33.0578H1.94801V11.8261H25.2315V14.0795L22.8571 16.454C22.713 16.1024 22.3614 15.8603 21.9638 15.8603H5.22722C4.69125 15.8603 4.25325 16.2925 4.25325 16.8343C4.25325 17.3702 4.68545 17.8082 5.22722 17.8082H21.4968L17.6413 21.6754H5.22722C4.69125 21.6754 4.25325 22.1076 4.25325 22.6493C4.25325 23.1911 4.69125 23.6118 5.22722 23.6118H15.699L14.6617 24.6492C14.5464 24.7644 14.4599 24.9085 14.4138 25.0699L13.728 27.4732H5.22722C4.69125 27.4732 4.25325 27.9054 4.25325 28.4471C4.25325 28.9831 4.68545 29.4269 5.22722 29.4269H13.1863L13.0537 29.8822C12.9557 30.2222 13.0537 30.5853 13.3015 30.8331C13.5436 31.0752 13.8548 31.1616 14.2525 31.081L19.0475 29.7266C19.2031 29.6805 19.3529 29.594 19.4682 29.4788L25.2314 23.7156V33.0578ZM18.2694 27.917L15.3993 28.7296L16.2119 25.848L27.2427 14.8173L29.3002 16.8747L18.2694 27.917ZM32.6314 13.5551L30.6834 15.503L28.626 13.4455L30.5739 11.4976C31.1271 10.9443 32.0838 10.9443 32.6314 11.4976C33.1155 12.0105 33.2826 12.8923 32.6314 13.5551Z" fill="#458DE2"/>
</svg>
