<svg width="34" height="35" viewBox="0 0 34 35" fill="none" xmlns="http://www.w3.org/2000/svg">
<path d="M5.07056 20.2976C5.06332 19.9064 5.21182 19.7362 5.64646 19.7398C7.41035 19.7543 9.17424 19.7507 10.9345 19.7398C11.3402 19.7362 11.4887 19.8992 11.4887 20.265C11.4814 21.3806 11.4742 22.4997 11.4887 23.6153C11.4923 24.0137 11.3438 24.1731 10.9092 24.1622C10.0363 24.1405 9.167 24.155 8.2941 24.155C7.4031 24.155 6.5121 24.1441 5.6211 24.1622C5.21544 24.1695 5.07056 24.021 5.07781 23.6443C5.08867 22.5323 5.08505 21.4168 5.07056 20.2976Z" fill="#468CDC"/>
<path d="M11.4933 29.5694C11.5005 29.9932 11.3013 30.1019 10.8921 30.0946C10.0192 30.0765 9.14627 30.0874 8.277 30.091C7.386 30.091 6.495 30.0801 5.604 30.0946C5.23094 30.1019 5.0752 29.9678 5.0752 29.6165C5.08606 28.4611 5.08968 27.3057 5.07882 26.1539C5.0752 25.7917 5.24543 25.6758 5.60762 25.6758C7.38963 25.6831 9.17525 25.6867 10.9573 25.6758C11.3665 25.6722 11.4969 25.8497 11.4933 26.2155C11.4788 27.3311 11.4752 28.4503 11.4933 29.5694Z" fill="#468CDC"/>
<path d="M20.0407 14.216C20.1023 15.4656 20.1059 16.7152 20.0335 17.9611C20.019 18.269 19.7727 18.2328 19.5663 18.2328C17.7806 18.2364 15.995 18.2291 14.2058 18.24C13.7929 18.2436 13.6625 18.0661 13.6661 17.7039C13.677 16.5848 13.677 15.4656 13.6661 14.3428C13.6625 13.9733 13.811 13.814 14.2166 13.814C15.9841 13.8212 17.7517 13.814 19.5192 13.814C19.7981 13.8176 20.1023 13.8103 20.0407 14.216Z" fill="#468CDC"/>
<path d="M20.0846 26.2341C20.0628 27.3533 20.0664 28.4688 20.0846 29.588C20.0882 29.9719 19.9252 30.0987 19.5268 30.0951C17.7629 30.0806 15.999 30.0806 14.2351 30.0951C13.7968 30.0987 13.6665 29.9393 13.6737 29.5373C13.6954 28.4362 13.6882 27.3388 13.6665 26.2377C13.6556 25.7958 13.8475 25.6582 14.2894 25.669C15.1623 25.6908 16.0352 25.6763 16.9045 25.6763V25.6799C17.7593 25.6799 18.6104 25.698 19.4616 25.6727C19.9107 25.6618 20.0918 25.7922 20.0846 26.2341Z" fill="#468CDC"/>
<path d="M20.0842 23.6805C20.0878 24.0354 19.932 24.1695 19.5626 24.1622C18.6535 24.1477 17.7408 24.1586 16.8317 24.1586V24.1622C15.9805 24.1622 15.1257 24.1477 14.2746 24.1695C13.8653 24.1767 13.6624 24.0499 13.6661 23.6406C13.6769 22.5034 13.6733 21.3697 13.6697 20.2324C13.6697 19.8883 13.8254 19.7398 14.1985 19.7398C15.9805 19.747 17.7625 19.7507 19.5481 19.7398C19.961 19.7362 20.0878 19.9064 20.0842 20.2722C20.0697 21.4095 20.0733 22.5432 20.0842 23.6805Z" fill="#468CDC"/>
<path d="M22.3366 23.9234C22.2062 22.6485 22.304 21.3735 22.2859 20.0986C22.2823 19.8125 22.5032 19.7437 22.764 19.7437C24.5822 19.7437 26.4004 19.7437 28.215 19.7473C28.5048 19.7473 28.7185 19.827 28.6497 20.1674C28.6968 21.3446 28.6968 22.5181 28.6497 23.6952C28.7221 23.8365 28.6279 23.9306 28.541 24.0248C28.4505 24.2385 28.244 24.1588 28.0919 24.1588C26.3389 24.1661 24.5822 24.1661 22.8292 24.1624C22.6372 24.1588 22.3837 24.224 22.3366 23.9234Z" fill="#468CDC"/>
<path d="M28.6756 26.2267C28.6828 27.3278 28.6647 28.4289 28.6864 29.5299C28.6937 29.932 28.5524 30.0914 28.1178 30.0877C26.3503 30.0732 24.5864 30.0805 22.8189 30.0841C22.5436 30.0841 22.2792 30.0515 22.2864 29.7255C22.3082 28.447 22.1995 27.1684 22.3444 25.8899C22.3625 25.6907 22.5219 25.6689 22.6812 25.6689C24.5755 25.6689 26.4698 25.6689 28.3641 25.6762C28.4257 25.6762 28.4872 25.745 28.5488 25.7812C28.7553 25.8899 28.6756 26.0746 28.6756 26.2267Z" fill="#468CDC"/>
<path d="M22.2719 17.6825C22.2937 16.5814 22.2937 15.484 22.2719 14.3829C22.2647 13.9446 22.4566 13.807 22.8985 13.8142C23.7714 13.836 24.6443 13.8215 25.5136 13.8215C26.3647 13.8215 27.2195 13.8323 28.0707 13.8179C28.5053 13.8106 28.6973 13.9338 28.6864 14.3829C28.6574 15.4803 28.661 16.5814 28.6864 17.6825C28.6973 18.1316 28.4981 18.2511 28.067 18.2475C26.343 18.233 24.6153 18.2294 22.8913 18.2439C22.453 18.2511 22.2611 18.1244 22.2719 17.6825Z" fill="#468CDC"/>
<path d="M33.7531 6.60301C33.7494 4.46244 32.2572 3.05712 29.9971 3.03176C29.164 3.0209 28.3274 3.0535 27.4943 3.02452C27.085 3.01003 27.0017 3.16215 27.0235 3.499C27.0488 3.86481 27.0524 4.23425 27.0198 4.60007C26.9365 5.49107 26.5381 6.20822 25.658 6.62837C25.5312 6.6827 25.3936 6.63561 25.2632 6.67545C24.1802 6.98694 23.224 6.79498 22.4127 6.03074C22.3294 5.95468 22.2207 5.91122 22.1302 5.84602C21.8078 5.52729 21.6992 5.12163 21.6666 4.70149C21.6304 4.26685 21.6557 3.82859 21.6485 3.39034C21.6449 3.22373 21.7137 2.98106 21.3696 3.07523C21.3153 3.05712 21.2609 3.03901 21.1994 3.03901C21.0617 3.03901 20.9277 3.03901 20.7901 3.03901C19.8158 3.03538 18.8415 3.03539 17.8672 3.03539C17.8527 3.03539 17.8346 3.03539 17.8201 3.03539C17.418 3.03539 17.0124 3.03539 16.6103 3.03539H16.6067C15.4803 3.03539 14.3502 3.03901 13.2238 3.03901C13.1622 3.03901 13.0898 3.02814 13.0318 3.06798C12.9956 3.09334 12.9703 3.14042 12.9558 3.2201C12.8616 3.19475 12.7747 3.14766 12.6986 3.06798C12.2604 2.93759 12.0575 3.0535 12.1046 3.52435C12.1408 3.86481 12.1227 4.21614 12.1046 4.56023C12.072 5.13612 11.9018 5.6613 11.4454 6.07421C11.2607 6.24081 11.018 6.31688 10.808 6.44364C9.78295 7.063 8.57322 6.95072 7.73292 6.23357C7.68946 6.19735 7.646 6.15751 7.60616 6.11767C7.47214 5.98728 7.35262 5.8424 7.24396 5.68303C7.17152 5.57438 7.08822 5.47296 6.96507 5.41139C6.59563 4.81739 6.73326 4.16181 6.74775 3.53159C6.75862 3.10058 6.61374 3.00641 6.18997 3.02452C5.37503 3.05712 4.56009 3.02452 3.74515 3.03539C1.48505 3.06798 0.0145385 4.49141 0.0145385 6.63199C0.0145385 14.7995 0.0326474 22.967 4.98347e-05 31.1345C-0.00719408 32.8984 0.775148 34.09 2.43763 34.8144C2.60061 34.9738 2.82517 34.8398 3.00627 34.9122C3.02076 34.9158 3.03163 34.9231 3.04611 34.9303L3.09682 34.9158L3.14029 34.9412C3.22359 34.9991 3.31776 35.0028 3.41555 34.9991C12.3618 34.981 21.3044 34.9955 30.2506 34.9883C30.4209 34.9883 30.6019 35.039 30.7577 34.9267L30.7505 34.9231C30.7577 34.9158 30.7649 34.9122 30.7758 34.9086C30.9134 34.8325 31.109 34.9774 31.2285 34.818C32.8295 34.2204 33.7567 33.1375 33.7603 31.4786C33.7639 23.1843 33.7603 14.8937 33.7531 6.60301ZM20.5583 3.2527C18.1714 3.2527 15.7845 3.2527 13.3977 3.25632C13.3107 3.25632 13.2202 3.25632 13.1369 3.24908C15.6143 3.24908 18.0881 3.24908 20.5583 3.2527ZM31.243 31.2178C31.243 31.7539 31.1271 32.1921 30.6382 32.5C30.3883 32.5181 30.1383 32.5543 29.8848 32.5543C21.232 32.5579 12.5791 32.5543 3.92625 32.5579C3.5713 32.5579 3.23083 32.529 2.9121 32.3732C2.61148 32.0798 2.52093 31.7285 2.52093 31.3192C2.52817 24.7997 2.5318 18.2802 2.51731 11.7607C2.51731 11.3297 2.65857 11.2536 3.07509 11.2536C12.2821 11.2645 21.4891 11.2645 30.6961 11.25C31.1344 11.25 31.243 11.3586 31.2394 11.7715C31.2285 18.2512 31.2285 24.7345 31.243 31.2178Z" fill="#468CDC"/>
<path d="M25.7452 5.40073C25.4518 5.98386 24.9085 6.2048 24.2856 6.17945C23.6408 6.15047 23.0976 5.88969 22.844 5.26672C22.4818 3.91573 22.605 2.54301 22.7317 1.18477C22.7933 0.511089 23.5503 0.02937 24.2819 0.00401632C25.0281 -0.0213374 25.8358 0.398809 25.9118 1.07249C26.0748 2.51041 26.2704 3.97368 25.7452 5.40073Z" fill="#468CDC"/>
<path d="M10.8266 5.39677C10.5549 5.96904 10.0261 6.18273 9.42851 6.17911C8.83813 6.17549 8.29484 5.99077 8.02682 5.41126C7.78052 5.00197 7.70809 4.5601 7.71533 4.09287C7.72982 3.3069 7.71171 2.51731 7.72257 1.73135C7.73706 0.709959 8.42885 0.00729968 9.4104 5.57743e-05C10.3956 -0.00718814 11.0946 0.691849 11.1091 1.71324C11.12 2.57527 11.1019 3.43367 11.12 4.29569C11.1272 4.69049 10.9896 5.04544 10.8266 5.39677Z" fill="#468CDC"/>
<path d="M13.0602 3.19132H21.3327C20.9959 3.35431 20.7785 3.3036 20.5721 3.3036C18.1852 3.30723 15.802 3.31447 13.4151 3.29274C13.1869 3.28912 12.7559 3.63682 12.6943 3.06818C12.8066 3.06818 12.9153 3.06456 13.0276 3.06456C14.2192 3.05369 15.4108 3.03558 16.6024 3.03196H16.606C16.9791 3.03196 17.3522 3.02834 17.7252 3.03196C17.7542 3.03196 17.7868 3.03196 17.8158 3.03196C17.8303 3.03196 17.8484 3.03196 17.8629 3.03196C18.8372 3.03196 19.8115 2.9885 20.7858 3.03558C20.9777 3.04645 21.1697 3.05731 21.3653 3.07542H13.0638C13.0602 3.11526 13.0602 3.15148 13.0602 3.19132Z" fill="#468CDC"/>
<path d="M30.6389 32.4998C30.4542 32.7352 30.1644 32.5469 29.929 32.6628C30.0159 32.7063 30.0883 32.7425 30.2767 32.8403H29.795C21.2834 32.8403 12.7718 32.8403 4.26017 32.8367C4.03923 32.8367 3.78931 32.92 3.62633 32.7026C4.16962 32.7026 4.71654 32.699 5.25983 32.699C13.3187 32.6773 21.3558 32.6773 29.3893 32.6773C21.2761 32.6737 13.1593 32.6737 5.06787 32.699C4.58615 32.699 4.10443 32.7026 3.62271 32.7026C3.61908 32.7026 3.61908 32.699 3.61546 32.699C3.61184 32.6954 3.60822 32.6954 3.6046 32.6918C3.38366 32.5541 2.92005 32.8475 2.90918 32.373C3.22791 32.5288 3.56838 32.5578 3.92333 32.5578C12.5762 32.5541 21.229 32.5578 29.8819 32.5541C30.139 32.5541 30.389 32.5179 30.6389 32.4998Z" fill="#468CDC"/>
<path d="M28.0707 18.2477C26.3466 18.2332 24.6189 18.2296 22.8949 18.2441C22.453 18.2477 22.2611 18.1209 22.2719 17.6791C22.2937 16.578 22.2937 15.4805 22.2719 14.3795C22.2647 13.9412 22.4566 13.8036 22.8985 13.8108C23.7714 13.8325 24.6443 13.8181 25.5136 13.8181C26.3647 13.8181 27.2195 13.8289 28.0707 13.8144C28.5053 13.8072 28.6973 13.9303 28.6864 14.3795C28.6574 15.4769 28.661 16.578 28.6864 17.6791C28.7009 18.1318 28.5017 18.2513 28.0707 18.2477Z" fill="#468CDC"/>
<path d="M20.0842 23.6805C20.0878 24.0354 19.932 24.1695 19.5626 24.1622C18.6535 24.1477 17.7408 24.1586 16.8317 24.1586V24.1622C15.9805 24.1622 15.1257 24.1477 14.2746 24.1695C13.8653 24.1767 13.6624 24.0499 13.6661 23.6406C13.6769 22.5034 13.6733 21.3697 13.6697 20.2324C13.6697 19.8883 13.8254 19.7398 14.1985 19.7398C15.9805 19.747 17.7625 19.7507 19.5481 19.7398C19.961 19.7362 20.0878 19.9064 20.0842 20.2722C20.0697 21.4095 20.0733 22.5432 20.0842 23.6805Z" fill="#468CDC"/>
<path d="M10.8921 30.0946C10.0192 30.0765 9.14627 30.0874 8.27701 30.091C7.386 30.091 6.495 30.0801 5.604 30.0946C5.23094 30.1019 5.0752 29.9678 5.0752 29.6165C5.08606 28.4611 5.08968 27.3057 5.07882 26.1539C5.0752 25.7917 5.24543 25.6758 5.60762 25.6758C7.38963 25.6831 9.17525 25.6867 10.9573 25.6758C11.3665 25.6722 11.4969 25.8497 11.4933 26.2155C11.4824 27.3347 11.4752 28.4503 11.4933 29.5694C11.5005 29.9932 11.2977 30.1019 10.8921 30.0946Z" fill="#468CDC"/>
<path d="M11.4887 20.2686C11.4814 21.3842 11.4742 22.5034 11.4887 23.6189C11.4923 24.0173 11.3438 24.1767 10.9092 24.1658C10.0363 24.1441 9.167 24.1586 8.2941 24.1586C7.4031 24.1586 6.5121 24.1477 5.6211 24.1658C5.21544 24.1731 5.07056 24.0246 5.07781 23.6479C5.0923 22.5323 5.08867 21.4131 5.07056 20.2976C5.06332 19.9064 5.21182 19.7362 5.64646 19.7398C7.41035 19.7543 9.17424 19.7507 10.9345 19.7398C11.3402 19.7398 11.4923 19.9028 11.4887 20.2686Z" fill="#468CDC"/>
<path d="M20.0846 26.2341C20.0628 27.3533 20.0664 28.4688 20.0846 29.588C20.0882 29.9719 19.9252 30.0987 19.5268 30.0951C17.7629 30.0806 15.999 30.0806 14.2351 30.0951C13.7968 30.0987 13.6665 29.9393 13.6737 29.5373C13.6954 28.4362 13.6882 27.3388 13.6665 26.2377C13.6556 25.7958 13.8475 25.6582 14.2894 25.669C15.1623 25.6908 16.0352 25.6763 16.9045 25.6763V25.6799C17.7593 25.6799 18.6104 25.698 19.4616 25.6727C19.9107 25.6618 20.0918 25.7922 20.0846 26.2341Z" fill="#468CDC"/>
<path d="M28.6747 26.2268C28.6747 26.0747 28.7544 25.8899 28.548 25.7849C28.3596 25.803 28.3451 25.9044 28.356 26.0095C28.3125 25.8139 28.1749 25.7197 27.8199 25.727C26.2335 25.7523 24.6471 25.7342 23.0607 25.7414C22.8144 25.7414 22.5536 25.7342 22.3399 25.8936C22.1987 27.1685 22.3037 28.4507 22.282 29.7292C22.2747 30.0588 22.5391 30.0878 22.8144 30.0878C24.5819 30.0842 26.3458 30.0769 28.1133 30.0914C28.548 30.095 28.6892 29.9357 28.682 29.5336C28.6675 28.4289 28.682 27.3279 28.6747 26.2268ZM28.3777 26.1616C28.3777 26.1725 28.3777 26.1833 28.3777 26.1942C28.3777 26.1616 28.3777 26.1326 28.3741 26.1036C28.3741 26.1254 28.3777 26.1435 28.3777 26.1616ZM28.3669 28.1102C28.3632 27.5053 28.3488 26.9041 28.3741 26.2992C28.3741 26.292 28.3741 26.2884 28.3741 26.2811C28.3669 26.8896 28.3669 27.4945 28.3669 28.103C28.3669 28.1863 28.3669 28.2696 28.3669 28.3529C28.3705 28.2732 28.3705 28.1935 28.3669 28.1102Z" fill="#468CDC"/>
<path d="M16.1039 14.274C16.2742 14.437 16.4987 14.379 16.6979 14.379C17.5129 14.379 18.3278 14.4152 19.1391 14.3573C19.5883 14.3247 19.7295 14.5384 19.7259 14.9114C19.7223 15.1179 19.639 15.3062 19.6028 15.5018C19.4361 16.3675 19.4253 17.215 20.0374 17.9611C20.0229 18.269 19.7766 18.2328 19.5702 18.2328C17.7845 18.2364 15.9989 18.2291 14.2097 18.24C13.7968 18.2436 13.6664 18.0662 13.67 17.704C13.6809 16.5848 13.6809 15.4656 13.67 14.3428C13.6664 13.9733 13.8149 13.814 14.2205 13.814C15.988 13.8212 17.7556 13.814 19.5231 13.814C19.7983 13.814 20.1026 13.8067 20.041 14.2124C19.9251 14.3029 19.7947 14.3066 19.6571 14.274C18.5451 14.0313 17.4187 14.1943 16.2995 14.1689C16.2307 14.1689 16.1402 14.1762 16.1039 14.274Z" fill="#468CDC"/>
<path d="M28.5446 24.0244C28.4613 24.086 28.3418 24.1113 28.273 24.0606C27.7623 23.6513 27.1502 23.7383 26.5598 23.7346C25.7268 23.7274 24.8973 23.7093 24.0643 23.7455C23.7492 23.7564 23.3363 23.5427 23.1153 24.0244C23.0791 24.1041 22.5829 24.1186 22.3366 23.9302C22.2062 22.6553 22.304 21.3804 22.2859 20.1054C22.2823 19.8193 22.5032 19.7505 22.764 19.7505C24.5822 19.7505 26.4004 19.7505 28.215 19.7541C28.5048 19.7541 28.7185 19.8338 28.6497 20.1743C28.5012 20.1996 28.5628 20.3083 28.5591 20.388C28.512 21.3767 28.5519 22.3619 28.541 23.3507C28.541 23.4702 28.5229 23.6115 28.6497 23.702C28.7257 23.8361 28.6352 23.9302 28.5446 24.0244Z" fill="#468CDC"/>
<path d="M20.0323 17.9608C19.6194 17.9681 19.5071 17.6348 19.4709 17.3886C19.3622 16.6642 19.1521 15.9361 19.5324 15.1973C19.7643 14.7409 19.5361 14.5345 18.9892 14.5417C18.0583 14.5526 17.1311 14.5453 16.2002 14.5453C15.9721 14.5453 15.7475 14.5163 15.7366 14.2483C15.7258 13.926 16.0047 13.9984 16.2002 13.9984C17.1673 13.9912 18.138 14.0201 19.1051 13.9839C19.4636 13.9694 19.6954 14.2664 20.0359 14.2193C20.1011 15.4653 20.1047 16.7149 20.0323 17.9608Z" fill="#468CDC"/>
<path d="M28.5443 24.0246C28.4537 24.2383 28.2472 24.1587 28.0951 24.1587C26.3421 24.1659 24.5855 24.1659 22.8324 24.1623C22.6368 24.1623 22.3833 24.2275 22.3398 23.9269C22.5861 23.9595 22.8433 23.8146 23.0679 24.0246C23.1367 23.8109 22.8686 23.8363 22.9049 23.6117C24.5601 23.648 26.2262 23.4669 27.9068 23.6842C28.2436 23.7204 28.1784 24.1985 28.5443 24.0246Z" fill="#468CDC"/>
<path d="M28.4364 26.9586C28.4111 27.3389 28.422 27.7228 28.3713 28.1031V28.1067C28.3568 28.2118 28.3387 28.3168 28.3133 28.4255C28.3133 27.7156 28.2988 27.002 28.3205 26.2921C28.3278 25.9698 28.2771 25.7923 27.8678 25.7995C26.0278 25.8213 24.1879 25.6873 22.3516 25.8865C22.3697 25.6873 22.529 25.6655 22.6884 25.6655C24.5827 25.6655 26.477 25.6655 28.3713 25.6728C28.4328 25.6728 28.4944 25.7416 28.556 25.7778C28.2916 26.1581 28.4618 26.5674 28.4364 26.9586Z" fill="#468CDC"/>
<path d="M28.6544 23.6946C28.2959 23.7127 28.4118 23.4266 28.4118 23.2853C28.4118 22.34 28.4263 21.3911 28.4733 20.4457C28.4842 20.2429 28.3031 20.1777 28.2705 20.0038C28.4552 19.9459 28.5204 20.1415 28.6544 20.1668C28.7015 21.3403 28.7051 22.5175 28.6544 23.6946Z" fill="#468CDC"/>
<path d="M3.64405 32.6558C12.286 32.6558 20.9316 32.6558 29.5736 32.6558C29.5736 32.6702 29.5736 32.6847 29.5736 32.6956C20.9172 32.6956 12.2571 32.6956 3.60059 32.6956C3.61507 32.6847 3.62956 32.6702 3.64405 32.6558Z" fill="#468CDC"/>
<path d="M28.3886 14.4659C28.3886 15.6431 28.3886 16.8166 28.3886 17.9937C28.3632 17.9937 28.3379 17.9937 28.3125 17.9937C28.3125 16.813 28.3125 15.6358 28.3125 14.4551C28.3379 14.4587 28.3632 14.4623 28.3886 14.4659Z" fill="#468CDC"/>
</svg>
