<svg width="41" height="35" viewBox="0 0 41 35" fill="none" xmlns="http://www.w3.org/2000/svg">
<path d="M38.3475 31.8846L34.676 25.1245H5.98729L2.30906 31.8846C2.09463 32.3804 2.77139 32.769 3.4011 32.7422H37.2689C37.8718 32.7757 38.5753 32.347 38.3475 31.8846Z" fill="#458DE2"/>
<path d="M34.1608 3.39006C34.1608 2.76699 33.6584 2.25781 33.0285 2.25781H7.58244C6.95937 2.25781 6.4502 2.76025 6.4502 3.39006V22.8732H34.1608V3.39006Z" fill="#F2F2F2"/>
<path d="M40.3383 30.8126L36.4189 23.617V3.39011C36.4189 1.52089 34.898 0 33.0288 0H7.58267C5.71345 0 4.19256 1.52089 4.19256 3.39011V23.7242L0.333485 30.8126C-0.664759 32.5077 0.641706 34.9196 3.40201 35H37.2698C39.8224 34.9598 41.4169 32.769 40.3383 30.8126ZM6.45043 3.39011C6.45043 2.76704 6.95286 2.25786 7.58267 2.25786H33.0354C33.6585 2.25786 34.1677 2.7603 34.1677 3.39011V22.8733H6.45043V3.39011ZM37.2698 32.7421H3.40201C2.77893 32.769 2.09554 32.3803 2.30997 31.8845L5.9882 25.1244H34.6769L38.3552 31.8845C38.5762 32.3469 37.8727 32.769 37.2698 32.7421Z" fill="#458DE2"/>
<path d="M32.237 4.28809H8.37207V20.8568H32.237V4.28809Z" fill="#458DE2"/>
<path d="M15.5744 10.76C15.2595 10.224 14.5627 10.0364 14.0268 10.3513L13.6046 10.5992V10.1034C13.6046 9.48037 13.1022 8.97119 12.4724 8.97119C11.8426 8.97119 11.3401 9.47363 11.3401 10.1034V10.5992L10.918 10.3513C10.382 10.0365 9.68525 10.2173 9.3704 10.76C9.05555 11.296 9.2364 11.9928 9.77905 12.3076L10.2346 12.5689L9.77905 12.8302C9.24303 13.145 9.05544 13.8419 9.3704 14.3778C9.68525 14.9138 10.3821 15.1014 10.918 14.7864L11.3401 14.5385V15.0343C11.3401 15.6574 11.8426 16.1666 12.4724 16.1666C13.1022 16.1666 13.6046 15.6642 13.6046 15.0343V14.5385L14.0268 14.7864C14.5628 15.1013 15.2595 14.9204 15.5744 14.3778C15.8892 13.8418 15.7084 13.145 15.1657 12.8302L14.7102 12.5689L15.1657 12.3076C15.7084 11.9794 15.896 11.296 15.5744 10.76Z" fill="#458DE2"/>
<path d="M23.4133 10.76C23.0984 10.224 22.4015 10.0364 21.8656 10.3513L21.4435 10.5992V10.1034C21.4435 9.48037 20.9411 8.97119 20.3113 8.97119C19.6882 8.97119 19.179 9.47363 19.179 10.1034V10.5992L18.7569 10.3513C18.2209 10.0365 17.5241 10.2173 17.2093 10.76C16.8944 11.296 17.0753 11.9928 17.6179 12.3076L18.0735 12.5689L17.6179 12.8302C17.0819 13.145 16.8943 13.8419 17.2093 14.3778C17.5241 14.9138 18.221 15.1014 18.7569 14.7864L19.179 14.5385V15.0343C19.179 15.6574 19.6815 16.1666 20.3113 16.1666C20.9411 16.1666 21.4435 15.6642 21.4435 15.0343V14.5385L21.8656 14.7864C22.4016 15.1013 23.0984 14.9204 23.4133 14.3778C23.7281 13.8418 23.5473 13.145 23.0046 12.8302L22.549 12.5689L23.0046 12.3076C23.5405 11.9794 23.7281 11.296 23.4133 10.76Z" fill="#458DE2"/>
<path d="M31.2453 10.76C30.9304 10.224 30.2336 10.0364 29.6977 10.3513L29.2755 10.5992V10.1034C29.2755 9.48037 28.7731 8.97119 28.1433 8.97119C27.5202 8.97119 27.011 9.47363 27.011 10.1034V10.5992L26.5889 10.3513C26.0529 10.0365 25.3562 10.2173 25.0413 10.76C24.7264 11.296 24.9073 11.9928 25.4499 12.3076L25.9055 12.5689L25.4499 12.8302C24.9139 13.145 24.7263 13.8419 25.0413 14.3778C25.3562 14.9138 26.053 15.1014 26.5889 14.7864L27.011 14.5385V15.0343C27.011 15.6574 27.5135 16.1666 28.1433 16.1666C28.7664 16.1666 29.2755 15.6642 29.2755 15.0343V14.5385L29.6977 14.7864C30.2337 15.1013 30.9304 14.9204 31.2453 14.3778C31.5601 13.8418 31.3793 13.145 30.8366 12.8302L30.3811 12.5689L30.8366 12.3076C31.3793 11.9794 31.5601 11.296 31.2453 10.76Z" fill="#458DE2"/>
<path d="M24.137 28.7495H16.5326C15.9096 28.7495 15.4004 29.2519 15.4004 29.8818C15.4004 30.5048 15.9028 31.014 16.5326 31.014H24.1303C24.7533 31.014 25.2625 30.5116 25.2625 29.8818C25.2625 29.2587 24.7601 28.7495 24.137 28.7495Z" fill="#458DE2"/>
</svg>
