<svg width="45" height="35" viewBox="0 0 45 35" fill="none" xmlns="http://www.w3.org/2000/svg">
<path fill-rule="evenodd" clip-rule="evenodd" d="M13.501 17.5C13.501 12.6675 17.4185 8.75001 22.251 8.75001C27.0834 8.75001 31.001 12.6675 31.001 17.5C31.001 22.3324 27.0834 26.25 22.251 26.25C17.4185 26.25 13.501 22.3324 13.501 17.5ZM9.65612 5.12565C16.4903 -1.70855 27.5708 -1.70855 34.4048 5.12565L39.1471 9.86783C40.5184 11.239 41.6999 12.4204 42.5189 13.4936C43.3965 14.644 44.0611 15.9233 44.0611 17.5C44.0611 19.0768 43.3965 20.356 42.5189 21.5064C41.6999 22.5796 40.5184 23.7611 39.1471 25.1322L34.4048 29.8745C27.5708 36.7085 16.4903 36.7085 9.65612 29.8745L4.9139 25.1322C3.5426 23.7611 2.36106 22.5796 1.54215 21.5064C0.664519 20.356 0 19.0768 0 17.5C0 15.9233 0.664519 14.644 1.54215 13.4936C2.36106 12.4204 3.5426 11.239 4.9139 9.86785C4.94774 9.83403 4.98167 9.80008 5.01573 9.76604L9.65612 5.12565Z" fill="#458DE2"/>
<path fill-rule="evenodd" clip-rule="evenodd" d="M22.252 13.125C19.8356 13.125 17.877 15.0837 17.877 17.5C17.877 19.9163 19.8356 21.875 22.252 21.875C24.6683 21.875 26.627 19.9163 26.627 17.5C26.627 15.0837 24.6683 13.125 22.252 13.125Z" fill="#458DE2"/>
</svg>
